<svg width="299" height="294" viewBox="0 0 299 294" fill="none" xmlns="http://www.w3.org/2000/svg">
<path d="M90.9094 45.533C91.0612 45.4823 91.4154 45.5329 91.719 45.4316C93.6416 45.1278 94.7042 45.7853 94.7552 47.961C94.9072 49.4283 94.8063 51.1486 94.5029 52.7677C93.4916 56.8156 92.531 61.0152 91.5197 65.0631C90.2555 69.8699 88.5865 74.4745 86.9682 79.2308C85.6027 83.2281 84.0855 87.2761 82.6188 91.4758C81.7085 94.3094 80.4441 97.0924 79.382 99.9765C78.4211 102.658 77.3084 105.391 76.3475 108.072C75.2348 110.805 74.1221 113.537 73.2118 116.371C70.228 125.63 66.8902 135.345 63.2487 144.656C63.0464 145.061 62.9959 145.415 62.9959 145.921C62.9454 146.275 63.0466 146.578 63.4514 146.781C63.9069 147.135 63.9068 146.629 64.2103 146.528C65.121 145.718 66.3353 145.819 67.1956 146.881C67.6005 147.59 68.056 148.45 68.4609 149.158C69.0176 150.322 69.726 150.423 70.7884 149.562C72.1543 148.601 72.9636 146.982 73.8741 145.666C75.2905 143.338 77.0611 141.567 78.9328 139.594C79.1858 139.341 79.5905 139.037 79.8941 139.442C80.1472 139.695 79.7424 139.998 79.4389 140.1C77.4154 142.63 75.9485 145.311 74.1275 147.943C73.6217 148.955 72.9135 149.866 72.1546 150.625C70.131 152.143 67.8035 151.739 66.69 149.411C66.3358 148.855 66.2344 148.045 65.7285 148.045C65.0201 147.944 65.0203 148.956 64.6662 149.412C64.2109 150.069 64.0087 150.98 63.9582 151.84C63.9583 152.346 64.009 153.004 63.1488 152.954C62.4911 153.004 62.3392 152.549 62.1367 151.942C61.4277 147.793 61.1235 143.847 61.4265 139.698C61.6279 133.727 62.386 127.908 62.7898 122.039C63.3961 116.271 64.1035 110.301 65.0639 104.583C65.6706 101.345 66.6314 98.1571 67.4404 95.02C69.0586 89.2517 70.8792 83.5846 73.054 77.9681C75.2794 72.5033 77.3024 66.9374 79.9325 61.6749C82.2086 56.8679 84.7377 52.3138 87.6717 47.9621C88.481 46.8488 89.594 46.1403 90.9094 45.533ZM62.9444 140.203C63.248 140.102 63.3492 139.9 63.4503 139.697C65.1699 135.244 67.0413 130.741 68.5585 126.187C71.0365 118.952 73.4135 111.918 76.1446 104.935C79.8872 95.4228 83.6299 85.9101 86.8159 76.2456C88.9906 69.6172 91.1652 62.9887 92.5808 56.1073C93.1369 53.2233 93.8954 50.4403 93.642 47.6576C93.5406 46.3421 92.6804 45.7857 91.4661 46.1906C90.4036 46.545 89.4424 47.2029 88.7342 48.1137C86.4579 51.4028 84.5864 54.8943 82.7148 58.3857C79.8822 63.547 77.8086 68.9612 75.5833 74.4259C73.7624 78.5751 72.3464 82.9266 70.8798 87.1264C69.5143 91.1237 68.8572 95.2221 67.6941 99.3206C65.6714 106.404 65.0147 113.539 64.4593 120.976C64.0048 126.188 63.2467 131.501 62.9439 136.662C62.9947 137.825 62.8937 139.04 62.9444 140.203ZM102.614 132.033C101.703 132.337 101.146 132.691 100.489 133.248C96.8969 136.638 92.4954 139.118 88.2456 141.548C86.8291 142.357 85.2606 142.712 83.8437 141.498C83.3883 141.144 83.2872 141.346 83.0848 141.751C82.7814 142.358 82.3261 143.016 82.0732 143.775C81.2639 144.888 80.3025 145.04 79.2905 144.028C77.7723 142.511 77.5696 140.386 79.239 138.817C79.7449 138.311 80.2002 137.653 80.7061 137.147C81.212 136.641 81.7179 136.641 82.1734 136.995C82.7806 137.298 83.0336 137.551 82.3759 138.108C81.3641 138.614 80.8076 139.474 80.0488 140.233C79.8465 140.638 79.6442 141.043 79.6442 141.549C79.7961 142.004 79.948 142.46 80.3022 142.51C80.9094 142.814 80.8587 142.156 80.9598 141.954C81.8703 140.638 82.5785 139.221 83.3372 137.956C83.6407 137.349 83.843 136.944 84.602 137.197C85.1586 137.349 85.3105 137.804 85.2094 138.512C85.1083 139.221 84.7037 140.03 85.3615 140.486C86.1711 140.89 86.8794 140.485 87.5877 140.08C92.2422 137.853 96.4918 134.918 100.792 132.135C101.349 131.78 101.804 131.123 102.563 131.881L102.614 132.033ZM105.457 141.373C103.029 142.183 100.903 140.868 100.903 138.338C100.903 136.314 101.105 134.392 101.155 132.52C101.256 131.811 101.408 131.255 102.268 131.305C102.825 131.457 102.875 132.115 102.724 132.671C102.724 134.695 102.269 136.871 102.623 138.945C102.775 140.412 103.383 140.716 104.9 140.21C106.368 139.552 107.43 138.186 108.543 136.971C109.909 135.504 109.605 135.099 110.465 133.125C110.768 132.518 110.819 132.164 110.009 131.759C109.2 131.355 108.947 130.596 109.301 129.634C109.705 128.825 110.059 127.863 110.413 126.902C110.666 126.143 111.172 125.637 112.083 125.839C113.095 125.839 113.651 126.497 113.652 127.509C113.803 127.964 113.803 128.47 113.601 128.875C113.551 129.735 113.956 129.937 114.512 129.583C115.777 128.824 117.092 128.216 118.509 127.407C120.532 126.394 122.506 125.23 124.529 124.218C124.833 124.117 125.238 123.813 125.339 124.117C125.693 124.673 125.035 124.724 124.884 124.775C121.039 127.406 117.194 130.038 113.096 131.911C112.337 132.164 112.185 132.72 111.882 133.328C110.314 136.718 109.859 138.388 106.773 140.766C106.52 141.019 106.064 141.171 105.457 141.373ZM111.375 130.798C111.982 130.595 112.69 127.661 112.387 127.256C112.134 127.003 111.982 127.054 111.729 127.307C111.172 128.167 110.667 129.179 110.515 130.241C110.515 130.747 110.92 130.95 111.375 130.798ZM144.067 117.871C140.829 120.806 137.389 123.64 133.848 126.17C132.431 126.98 131.217 127.891 129.801 128.701C128.485 129.308 127.17 129.409 125.753 129.207C124.387 129.157 123.729 128.196 123.172 127.032C123.071 126.728 123.122 126.374 123.223 126.172C123.88 124.603 124.69 122.984 125.954 121.719C126.764 120.606 128.029 120.353 128.99 121.213C129.749 121.971 129.749 122.983 128.94 124.097C128.08 125.058 127.017 125.918 125.955 126.779C125.652 126.88 125.196 127.032 125.297 127.335C125.449 127.791 125.854 127.993 126.208 128.044C127.271 128.195 128.333 127.841 129.193 127.385C131.925 125.968 134.354 124.146 136.934 122.274C138.856 120.958 140.88 119.44 142.802 118.124C143.207 117.82 143.511 117.719 144.017 117.719L144.067 117.871ZM212.003 95.5511C211.092 95.8548 210.536 96.2091 209.878 96.7658C206.286 100.156 201.885 102.636 197.635 105.065C196.218 105.875 194.65 106.23 193.233 105.016C192.778 104.661 192.676 104.864 192.474 105.269C192.171 105.876 191.715 106.534 191.463 107.293C190.653 108.406 189.692 108.558 188.68 107.546C187.162 106.028 186.959 103.903 188.628 102.335C189.134 101.829 189.59 101.171 190.095 100.665C190.601 100.159 191.107 100.159 191.563 100.513C192.17 100.816 192.423 101.069 191.765 101.626C190.753 102.132 190.197 102.992 189.438 103.751C189.236 104.156 189.033 104.561 189.034 105.067C189.185 105.522 189.337 105.978 189.691 106.028C190.299 106.332 190.248 105.674 190.349 105.471C191.26 104.156 191.968 102.739 192.727 101.474C193.03 100.867 193.232 100.462 193.991 100.715C194.548 100.866 194.7 101.322 194.599 102.03C194.498 102.739 194.093 103.548 194.751 104.003C195.56 104.408 196.269 104.003 196.977 103.598C201.632 101.371 205.881 98.4361 210.181 95.6526C210.738 95.2983 211.193 94.6405 211.952 95.3993L212.003 95.5511ZM213.277 96.1383C214.035 95.3792 214.592 94.519 215.502 93.7093C215.755 93.4563 216.16 93.1527 216.615 93.0008C217.981 92.5452 218.386 92.7475 218.791 93.9618C219.247 95.3278 219.399 95.2772 220.562 94.7205C222.131 93.8601 223.395 92.595 224.508 91.3805C224.862 90.925 225.318 90.2672 225.925 90.5707C226.38 90.9248 225.925 91.5826 225.571 92.0381C224.256 93.6574 222.789 95.3273 220.866 96.1371C219.298 96.9975 218.083 96.3905 217.274 94.974C216.919 94.4174 216.666 94.6705 216.262 94.9741C215.199 95.8344 214.592 97.0488 213.783 98.1621C213.378 98.9717 212.771 99.6801 212.367 100.49C212.012 100.945 211.405 101.148 210.798 100.844C210.191 100.541 210.191 100.035 210.342 99.4781C210.747 98.1626 211.202 96.9988 210.898 95.5821C210.848 94.9244 211.708 94.4689 212.366 94.4182C213.023 94.3675 213.074 95.0252 213.074 95.5312C213.125 95.683 213.024 95.8854 213.277 96.1383ZM245.582 83.8462C244.823 85.1112 243.963 86.0727 243.103 87.0342C240.574 90.0704 236.679 94.574 234.2 97.762C233.998 98.1668 233.644 98.6222 233.644 99.1282C233.847 103.277 233.392 107.477 233.089 111.626C232.887 114.56 232.736 117.647 232.028 120.581C231.219 124.73 230.461 129.031 228.893 132.927C228.134 135.204 227.73 137.532 226.769 139.708C224.948 143.351 223.228 147.298 221.407 150.941C220.042 153.42 218.727 156.052 217.361 158.531C215.894 161.213 214.174 163.642 212.454 166.071C209.267 170.675 205.878 175.179 201.78 179.076C200.111 180.644 198.391 182.061 196.418 183.225C192.32 185.604 188.93 183.53 187.968 179.634C186.905 175.435 187.764 171.438 188.472 167.491C189.23 163.696 190.596 160.205 191.759 156.612C193.782 151.046 196.766 145.834 199.548 140.521C202.28 135.057 205.871 130.148 209.614 125.189C214.724 118.257 220.288 111.678 225.853 105.1C227.472 103.379 229.04 101.507 230.81 99.7358C231.569 98.9767 231.923 98.0154 231.721 96.9023C231.164 95.2327 230.961 93.6136 230.607 92.0452C230.506 91.7416 230.505 91.2356 230 91.2357C229.696 91.337 229.645 91.6912 229.595 92.0453C229.494 92.2477 229.393 92.4501 229.443 92.6019C229.14 93.7151 228.836 94.8283 227.47 94.7779C225.952 94.7781 224.89 94.1205 224.434 92.7545C224.181 92.5016 224.029 92.0462 224.08 91.692C223.827 90.9331 224.029 90.5283 224.839 90.427C225.496 90.3763 226.053 90.528 226.002 91.3881C226.053 92.0459 226.053 93.0578 226.762 93.1589C227.47 93.26 227.419 92.0963 227.571 91.5397C228.178 90.3253 228.633 89.1615 229.088 87.9977C229.24 87.4411 229.493 87.1881 230.049 87.3398C230.555 87.3397 230.96 87.542 231.163 88.1492C231.973 90.0717 232.631 92.0449 232.833 94.1699C232.884 94.3217 232.884 94.3217 232.884 94.3217C233.086 94.9288 233.036 95.7889 233.643 96.0924C234.402 96.3453 234.655 95.5863 235.11 94.9285C238.955 90.273 241.838 87.2874 244.823 84.0993C244.924 83.8969 245.076 83.8463 245.582 83.8462ZM193.433 183.378C195.659 182.466 197.177 181.454 198.745 180.088C201.173 177.76 203.551 175.281 205.675 172.548C208.66 168.854 211.29 165.109 213.87 161.213C217.006 156.457 219.535 151.397 221.913 146.387C223.683 142.592 225.504 138.949 226.667 134.85C228.184 130.296 229.246 125.894 230.207 121.189C231.117 116.837 231.571 112.638 231.773 108.185C231.925 106.111 232.228 103.986 232.025 101.861C231.924 101.557 232.126 101.152 231.57 101.001C231.215 100.95 231.165 101.304 230.861 101.405C226.764 105.808 222.97 110.615 218.973 115.321C215.23 119.774 211.891 124.43 208.451 129.288C205.619 132.931 203.039 136.827 200.864 140.926C198.739 145.176 196.463 149.477 194.389 153.88C192.619 157.675 191.76 161.672 190.495 165.467C189.383 168.705 189.181 172.146 188.928 175.435C188.726 177.357 189.182 179.229 189.739 180.899C190.397 182.872 191.966 184.036 193.433 183.378ZM85.3689 205.419C85.0147 205.368 84.8124 205.773 84.5594 206.026C83.6488 206.836 82.2322 207.139 81.0178 206.532C80.4106 206.229 80.2587 205.774 80.208 205.116C80.2584 203.75 80.6629 202.434 81.2193 201.068C81.6239 200.258 82.484 199.803 83.496 200.309C84.1538 200.764 84.4574 200.663 84.7103 199.904C84.7102 199.398 84.8113 198.689 85.5196 198.79C86.1774 198.74 86.481 199.144 86.8353 199.701C87.5438 200.814 87.4428 202.028 87.5442 203.344C87.14 207.189 86.0275 210.933 85.2692 214.728C85.2186 215.083 85.0163 215.487 85.0164 215.993C85.6235 215.791 85.7752 215.234 85.9775 214.829C88.9112 208.96 92.4521 203.394 95.6388 197.777C95.9422 197.17 96.4481 196.664 97.207 196.411C96.0436 198.485 95.032 200.509 93.8686 202.584C92.3006 205.468 90.7326 208.352 89.1645 211.237C87.7988 213.716 86.4331 216.195 85.0674 218.675C84.4098 219.738 84.157 221.002 84.1066 222.369C84.0055 223.077 83.1961 223.684 83.7528 224.342C84.107 224.898 84.9672 224.949 85.4226 225.303C87.3455 226.517 88.5094 227.984 89.1169 230.311C90.4837 234.916 90.3833 239.672 90.3335 244.579C90.2835 248.475 89.8287 252.169 88.8679 255.863C87.9579 260.214 86.8454 264.464 85.5812 268.765C84.4687 272.51 83.3055 276.102 82.0412 279.897C80.878 282.984 79.9171 286.171 78.3997 289.207C77.7927 290.422 77.1858 291.636 75.8197 292.092C74.2008 292.8 72.6322 292.143 72.3789 290.372C71.8725 287.842 72.3275 285.161 72.7824 282.479C73.8946 276.205 75.3609 269.981 76.473 263.707C77.5344 256.269 78.444 248.882 79.3536 241.495C80.0611 236.536 80.8699 231.881 81.6281 227.074C81.7292 226.366 82.2856 225.506 81.5267 225.253C80.7171 224.848 80.5654 225.911 80.0595 226.417C78.3396 228.34 76.822 230.364 74.6466 231.933C73.9383 232.338 73.3818 232.692 72.5723 232.793C71.8639 232.692 71.5603 232.287 72.0155 231.63C74.1908 229.049 75.86 225.962 79.2497 224.494C80.1604 224.191 80.4638 223.078 81.2226 222.318C82.4367 220.902 83.2966 219.434 83.4987 217.511C84.1053 213.767 84.7119 210.023 85.5208 206.38C85.5714 206.026 85.6219 205.672 85.3689 205.419ZM87.7507 229.755C87.3964 228.693 86.4854 226.972 84.7143 225.708C83.8541 225.151 83.3987 225.303 83.2471 226.366C82.337 230.211 81.8317 234.259 81.2757 238.155C80.5175 242.962 79.7593 247.769 79.1529 252.525C78.2431 258.394 77.6368 264.162 76.5752 270.082C75.6146 274.788 74.6034 279.342 73.9464 283.946C73.6431 286.071 73.4917 288.146 73.6438 290.119C73.6439 290.625 73.7957 291.08 74.2005 291.283C74.7571 291.434 75.0101 291.181 75.4148 290.878C75.9713 290.523 76.4265 289.865 76.73 289.258C77.8934 287.184 78.8544 285.008 79.613 282.731C81.9394 276.052 84.0634 269.272 85.8332 262.441C88.0076 254.8 89.3726 247.261 89.2195 239.216C89.1179 236.383 88.9656 233.398 87.7507 229.755ZM82.8391 205.419C83.1426 205.318 83.3956 205.065 83.5979 204.66C83.8001 203.749 83.9012 203.041 84.1541 202.282C84.3058 201.725 84.2045 201.422 83.8504 201.371C83.2938 201.219 82.9396 201.169 82.5855 201.624C82.2821 202.737 81.9281 203.699 81.9788 204.863C81.9789 205.369 82.2319 205.621 82.8391 205.419ZM105.75 200.477C103.928 201.084 102.259 200.629 101.196 198.96C100.842 198.403 100.791 198.757 100.538 199.01C99.8299 199.921 99.1217 200.832 98.2617 201.793C97.7053 202.654 96.7946 202.957 95.6814 202.654C94.9224 202.401 94.5682 201.845 94.6186 200.984C94.8714 199.719 95.276 198.404 95.9336 197.341C96.1359 196.936 96.3382 196.532 96.9454 196.835C97.5526 197.139 97.5021 197.493 97.1986 198.1C97.0469 198.657 96.794 199.416 96.4906 200.023C96.44 200.377 96.2377 200.782 96.6425 200.984C97.0473 201.186 97.0978 200.832 97.3508 200.579C98.6155 199.314 99.3236 197.897 100.335 196.379C100.841 195.873 101.296 195.215 101.752 194.558C102.258 194.052 102.713 193.9 103.118 194.102C103.725 194.405 103.573 194.962 103.371 195.367C103.169 196.278 102.815 197.239 102.967 198.2C102.967 199.212 103.422 199.566 104.535 199.364C105.497 199.212 106.154 198.655 106.863 198.25C109.392 196.226 111.466 193.848 113.743 191.57C114.147 191.267 114.603 190.609 114.856 190.862C115.362 191.368 114.653 191.773 114.299 192.228C112.832 194.404 111.163 196.479 109.038 198.199C108.128 199.009 107.116 200.021 105.75 200.477ZM133.998 184.478C130.76 187.413 127.32 190.247 123.779 192.777C122.362 193.587 121.148 194.498 119.731 195.308C118.416 195.915 117.1 196.017 115.684 195.814C114.318 195.764 113.66 194.803 113.103 193.639C113.002 193.336 113.052 192.981 113.153 192.779C113.811 191.21 114.62 189.591 115.885 188.326C116.694 187.213 117.959 186.96 118.921 187.82C119.68 188.578 119.68 189.59 118.871 190.704C118.011 191.665 116.948 192.525 115.886 193.386C115.582 193.487 115.127 193.639 115.228 193.942C115.38 194.398 115.785 194.6 116.139 194.651C117.201 194.802 118.264 194.448 119.124 193.992C121.856 192.575 124.284 190.753 126.864 188.881C128.787 187.565 130.811 186.047 132.733 184.731C133.138 184.427 133.441 184.326 133.947 184.326L133.998 184.478ZM127.293 226.519C124.864 227.329 123.498 226.266 123.245 223.989C122.992 222.219 123.447 220.549 123.902 218.879C125.57 212.757 128.201 206.988 131.489 201.675C133.411 198.841 135.131 195.907 136.85 192.972C137.205 192.516 137.053 192.061 136.901 191.606C135.939 189.734 134.876 188.064 133.51 186.496C132.953 185.838 132.397 185.181 132.144 184.422C130.98 182.449 132.092 179.716 134.47 179.26C134.622 179.21 134.926 179.109 135.128 179.21C135.432 179.108 135.634 179.21 135.533 179.412C135.634 179.716 135.482 179.766 135.33 179.817C134.723 180.019 134.319 180.323 133.914 180.627C132.548 182.094 132.599 182.752 133.661 184.421C134.977 186.344 136.748 188.114 137.811 190.29C138.216 190.998 138.52 190.391 138.773 190.138C140.493 187.709 142.061 185.331 143.629 182.953C144.236 182.244 144.792 181.384 145.399 180.675C145.602 180.271 145.905 180.169 146.158 180.422C146.563 180.625 146.462 180.827 146.411 181.181C146.31 181.384 146.057 181.637 145.956 181.839C143.477 185.027 141.403 188.417 139.178 191.858C138.925 192.111 138.722 192.516 138.925 193.123C141.152 198.79 140.546 204.558 138.573 210.275C137.461 213.514 135.943 216.55 134.224 219.485C132.706 222.015 130.784 224.342 128.305 226.013C127.9 226.316 127.445 226.468 127.293 226.519ZM124.763 224.495C125.168 226.215 125.724 226.367 127.141 225.557C128.406 224.798 129.316 223.989 130.328 222.976C133.717 218.979 136.095 214.475 137.663 209.567C138.977 204.912 139.533 200.004 138.318 195.35C138.166 194.894 138.369 194.489 137.812 194.338C137.306 194.338 137.255 194.692 137.002 194.945C135.08 198.285 132.956 201.523 131.034 204.863C128.606 209.214 126.583 213.768 125.116 218.474C124.61 220.498 124.054 222.37 124.763 224.495ZM164.778 174.044C164.019 176.321 162.4 178.041 161.237 180.116C159.568 182.697 157.949 185.429 156.28 188.01C154.864 190.337 153.194 192.412 151.322 194.386C150.159 195.448 148.54 195.651 147.022 195.145C145.352 194.69 144.289 193.527 143.884 191.806C143.378 188.771 143.732 185.786 144.439 182.851C146.158 174.35 148.991 166.153 151.873 158.108C152.025 157.551 152.379 157.096 151.924 156.742C151.671 156.489 151.114 156.843 150.659 156.995C148.18 158.159 145.448 159.07 142.817 160.285C137.808 162.462 132.951 164.587 127.993 166.916C122.377 169.8 116.66 172.382 110.994 175.115C108.414 176.481 105.783 177.696 102.899 178.152C102.292 178.354 101.432 178.304 100.825 178C100.572 177.747 100.217 177.697 100.268 177.343C100.369 177.14 100.673 177.039 100.875 177.14C102.393 176.634 103.86 175.976 105.277 175.672C110.387 174.811 114.636 171.876 119.342 169.801C125.817 166.966 132.142 163.677 138.769 160.792C143.221 158.969 147.674 157.147 152.227 155.123C152.834 154.92 153.188 154.465 153.34 153.908C154.402 151.024 155.666 148.241 156.729 145.357C157.386 143.788 158.044 142.22 158.701 140.651C158.752 140.297 158.853 140.095 159.106 139.842C159.409 139.234 159.966 138.88 160.725 139.133C161.433 139.234 161.332 139.942 161.383 140.6C161.079 142.219 160.624 143.889 160.118 145.407C159.461 147.482 158.652 149.607 157.994 151.681C157.741 151.934 157.539 152.339 157.792 152.592C158.096 152.997 158.501 152.693 158.804 152.592C164.572 150.668 170.441 148.542 176.259 146.771C182.988 144.695 189.97 142.873 197.053 141.859C198.217 141.809 199.178 141.657 200.545 142.213C198.976 142.568 197.458 142.568 196.193 142.821C190.83 143.935 185.518 145.201 180.307 146.77C176.006 148.036 171.807 149.099 167.608 150.668C164.42 151.731 161.283 152.946 158.096 154.009C157.034 154.363 156.426 155.072 156.123 156.185C154.505 160.435 152.886 164.685 151.065 168.835C149.75 171.972 148.182 174.856 147.07 178.094C145.755 182.243 144.845 186.595 145.2 191.199C145.301 192.515 146.01 193.628 147.325 194.032C148.843 194.538 150.007 193.981 151.019 192.969C152.587 191.097 154.104 189.073 155.622 187.049C158.505 182.545 161.237 178.598 164.07 174.449C164.171 174.246 164.424 173.993 164.778 174.044ZM160.118 140.853C159.612 140.853 159.561 141.208 159.46 141.41C158.803 142.979 157.993 144.598 157.386 146.318C156.577 148.443 155.667 150.771 154.908 153.048C154.858 153.402 154.605 153.655 155.01 153.857C155.414 154.06 155.667 153.807 155.768 153.604C156.021 153.351 156.123 153.149 156.224 152.946C157.438 149.506 159.005 146.116 159.865 142.624C160.017 142.068 160.32 141.46 160.118 140.853ZM150.964 164.989C152.43 162.307 153.493 159.423 154.605 156.691C154.808 156.286 155.162 155.831 154.757 155.628C154.15 155.325 153.846 155.932 153.644 156.337C153.543 156.539 153.593 156.691 153.492 156.893C152.531 159.575 151.57 162.257 150.964 164.989ZM164.778 173.032C165.031 173.791 165.385 174.347 165.537 174.803C165.638 175.612 165.385 176.371 165.487 177.181C165.436 178.041 165.892 178.395 166.549 177.838C168.725 176.269 170.698 174.599 172.671 172.93C173.48 172.322 173.885 171.513 174.542 170.956C174.795 170.703 175.301 170.703 175.554 170.45C175.605 170.602 175.656 170.753 175.706 170.905C175.352 171.361 174.998 171.816 174.593 172.12C172.722 174.093 170.698 176.117 168.776 177.939C167.865 178.749 166.904 179.407 165.487 179.205C164.779 179.104 164.121 178.648 163.969 177.687C164.07 176.473 164.12 175.106 164.221 173.892C164.322 173.69 164.474 173.639 164.778 173.032ZM164.979 169.085C164.929 168.428 164.726 167.821 164.676 167.163C164.625 167.011 165.08 166.859 165.232 166.809C165.384 166.758 165.637 167.011 165.536 167.213C165.586 167.871 165.435 168.428 165.485 169.085C165.334 169.136 165.182 169.187 164.979 169.085ZM178.486 175.038C177.424 175.392 175.754 174.937 175.147 174.128C174.59 173.47 174.286 171.547 174.691 170.738C174.893 170.333 175.298 170.029 175.703 170.232C176.26 170.383 176.057 170.788 176.007 171.142C175.804 172.053 175.552 173.318 176.715 173.773C177.879 174.228 178.587 173.318 179.346 172.558C179.852 172.052 180.156 171.445 180.51 170.99C180.864 170.534 180.763 170.231 180.105 170.282C179.194 170.585 178.132 170.434 177.676 169.574C177.221 168.713 177.929 167.803 178.485 166.942C179.902 165.121 181.774 165.171 183.191 166.891C183.494 167.296 183.798 167.701 184.253 167.549C186.176 167.245 188.098 166.435 190.072 165.777C190.679 165.574 191.387 165.17 192.146 164.916C192.298 164.866 192.702 164.562 192.854 165.017C192.956 165.321 192.652 165.422 192.399 165.675C189.616 166.941 187.087 168.459 184.304 168.712C183.495 168.814 183.039 169.472 182.786 170.23C182.129 171.799 181.168 172.963 180.004 174.026C179.498 174.532 179.094 174.835 178.486 175.038ZM194.61 165.613C195.369 164.853 195.926 163.993 196.836 163.184C197.089 162.931 197.494 162.627 197.949 162.475C199.315 162.019 199.72 162.222 200.125 163.436C200.581 164.802 200.732 164.751 201.896 164.195C203.464 163.334 204.729 162.069 205.842 160.855C206.196 160.399 206.651 159.741 207.258 160.045C207.714 160.399 207.259 161.057 206.905 161.512C205.589 163.132 204.122 164.801 202.2 165.611C200.631 166.472 199.417 165.865 198.607 164.448C198.253 163.892 198 164.145 197.595 164.448C196.533 165.309 195.926 166.523 195.117 167.636C194.712 168.446 194.105 169.154 193.7 169.964C193.346 170.419 192.739 170.622 192.132 170.318C191.525 170.015 191.524 169.509 191.676 168.952C192.081 167.637 192.536 166.473 192.232 165.056C192.181 164.399 193.041 163.943 193.699 163.892C194.357 163.842 194.408 164.499 194.408 165.005C194.458 165.157 194.357 165.36 194.61 165.613ZM200.664 202.049C198.235 202.859 196.869 201.797 196.616 199.52C196.362 197.749 196.818 196.079 197.273 194.409C198.941 188.287 201.571 182.519 204.859 177.205C206.782 174.372 208.501 171.437 210.221 168.502C210.575 168.047 210.424 167.591 210.272 167.136C209.31 165.264 208.247 163.594 206.881 162.026C206.324 161.368 205.768 160.711 205.514 159.952C204.35 157.979 205.463 155.246 207.841 154.791C207.993 154.74 208.296 154.639 208.499 154.74C208.802 154.639 209.005 154.74 208.904 154.942C209.005 155.246 208.853 155.297 208.701 155.347C208.094 155.55 207.689 155.853 207.285 156.157C205.919 157.624 205.97 158.282 207.032 159.952C208.348 161.874 210.119 163.645 211.182 165.82C211.587 166.528 211.891 165.921 212.144 165.668C213.863 163.239 215.432 160.861 217 158.483C217.607 157.774 218.163 156.914 218.77 156.206C218.972 155.801 219.276 155.7 219.529 155.953C219.934 156.155 219.833 156.357 219.782 156.711C219.681 156.914 219.428 157.167 219.327 157.369C216.848 160.557 214.774 163.948 212.549 167.388C212.296 167.642 212.093 168.046 212.296 168.653C214.523 174.32 213.917 180.088 211.944 185.806C210.832 189.044 209.314 192.08 207.594 195.015C206.077 197.545 204.155 199.873 201.676 201.543C201.271 201.846 200.816 201.998 200.664 202.049ZM198.134 200.025C198.539 201.746 199.095 201.897 200.512 201.088C201.777 200.328 202.687 199.519 203.699 198.507C207.088 194.509 209.466 190.006 211.033 185.097C212.348 180.442 212.904 175.534 211.689 170.88C211.537 170.424 211.739 170.02 211.183 169.868C210.677 169.868 210.626 170.222 210.373 170.475C208.451 173.815 206.327 177.053 204.405 180.393C201.977 184.745 199.953 189.299 198.487 194.004C197.981 196.028 197.425 197.901 198.134 200.025ZM195.539 102.223C195.286 102.982 194.983 103.083 194.224 102.83C193.212 102.324 192.554 101.363 192.756 99.9461C192.907 97.3657 194.02 95.1393 195.184 93.0646C198.977 86.2335 203.732 80.2624 209.702 75.4042C214.609 71.4063 219.769 67.6614 225.486 65.08C229.584 63.2073 233.733 61.9924 238.236 62.8518C243.195 63.5594 246.535 66.4934 248.66 70.8444C250.28 74.6895 250.736 78.5853 250.585 82.6837C250.535 87.5915 249.575 92.2972 248.31 97.104C246.894 101.961 245.175 106.92 243.051 111.677C239.965 119.115 236.172 126.452 232.328 133.637C229.546 138.95 226.764 144.263 224.134 149.526C223.678 150.184 223.577 150.892 223.324 151.651C223.071 151.904 222.565 152.41 222.211 152.359C221.351 152.309 221.806 151.651 221.958 151.095C223.88 147.249 225.954 143.353 227.927 139.659C230.203 135.358 232.53 131.208 234.806 126.907C238.802 119.166 242.545 111.171 245.529 102.923C247.804 96.0922 249.726 89.2108 249.624 81.8237C249.623 77.27 249.015 72.9188 246.383 69.0739C243.549 64.6219 239.35 63.1552 234.239 63.5102C230.951 63.7637 227.966 64.9279 225.082 66.3956C217.796 69.8373 211.321 74.6956 205.655 80.4645C201.254 84.9682 197.612 90.2308 195.032 96.151C194.526 97.163 194.274 98.428 194.021 99.6929C193.819 101.11 194.274 101.97 195.539 102.223ZM224.337 158.734C224.843 159.24 225.248 159.442 225.299 159.594C225.248 159.948 224.995 160.201 224.742 160.454C224.641 160.657 223.983 160.202 223.933 160.05C223.983 159.696 224.236 159.443 224.337 158.734Z" fill="#0E2C2C"/>
</svg>
